<svg width="40" height="40" viewBox="0 0 40 40" fill="none" xmlns="http://www.w3.org/2000/svg">
  <!-- Coffee cup -->
  <path d="M8 12C8 10.8954 8.89543 10 10 10H30C31.1046 10 32 10.8954 32 12V24C32 25.1046 31.1046 26 30 26H10C8.89543 26 8 25.1046 8 24V12Z" fill="#8B4513"/>
  <!-- Coffee cup handle -->
  <path d="M30 14C31.1046 14 32 14.8954 32 16V20C32 21.1046 31.1046 22 30 22V14Z" fill="#8B4513"/>
  <!-- Coffee steam -->
  <path d="M16 6C16 6 17 4 19 4C21 4 22 6 22 6" stroke="#D2691E" stroke-width="2" stroke-linecap="round"/>
  <path d="M20 6C20 6 21 4 23 4C25 4 26 6 26 6" stroke="#D2691E" stroke-width="2" stroke-linecap="round"/>
  <!-- Coffee cup rim -->
  <path d="M8 12H32V14H8V12Z" fill="#A0522D"/>
</svg>